<svg xmlns="http://www.w3.org/2000/svg" width="80" height="80" viewBox="0 0 80 80">
    <g fill="none" fill-rule="evenodd">
        <rect width="79" height="79" x=".5" y=".5" stroke="#ffffff" fill="#d3d3d3" rx="100" stroke-width="10"/>
        <path fill="#757575" d="M32.747 26.593L30.4 24.246c-3.938 3.003-6.531 7.63-6.761 12.882h3.282a13.86 13.86 0 0 1 5.826-10.535zm20.332 10.535h3.282c-.246-5.251-2.839-9.879-6.761-12.882l-2.33 2.347c3.315 2.38 5.563 6.186 5.809 10.535zm-3.233.82c0-5.037-2.691-9.255-7.384-10.37v-1.116c0-1.363-1.1-2.462-2.462-2.462a2.458 2.458 0 0 0-2.462 2.462v1.115c-4.71 1.116-7.384 5.317-7.384 10.372v8.205l-3.282 3.282v1.64h26.256v-1.64l-3.282-3.282v-8.205zM40 56c.23 0 .443-.016.656-.066a3.33 3.33 0 0 0 2.363-1.936c.165-.394.247-.82.247-1.28h-6.564A3.306 3.306 0 0 0 40 56z"/>
    </g>
</svg>
